Run_20001
nRows=4
nColumns=164

# SIMM Motion File Header:
name Run_20001
datacolumns 164
datarows 4
otherdata 1
range 0.01666700 0.04166700
endheader
time	pelvis_tilt	pelvis_list	pelvis_rotation	pelvis_tx	pelvis_ty	pelvis_tz	hip_flexion_r	hip_adduction_r	hip_rotation_r	knee_angle_r	ankle_angle_r	hip_flexion_l	hip_adduction_l	hip_rotation_l	knee_angle_l	ankle_angle_l	lumbar_extension	lumbar_bending	lumbar_rotation	arm_flex_r	arm_add_r	arm_rot_r	elbow_flex_r	pro_sup_r	arm_flex_l	arm_add_l	arm_rot_l	elbow_flex_l	pro_sup_l	subtalar_angle_r	mtp_angle_r	subtalar_angle_l	mtp_angle_l	wrist_flex_r	wrist_dev_r	wrist_flex_l	wrist_dev_l	LASI_tx	LASI_ty	LASI_tz	RASI_tx	RASI_ty	RASI_tz	LPSI_tx	LPSI_ty	LPSI_tz	RPSI_tx	RPSI_ty	RPSI_tz	RTH1_tx	RTH1_ty	RTH1_tz	RTH2_tx	RTH2_ty	RTH2_tz	RTH3_tx	RTH3_ty	RTH3_tz	LTH1_tx	LTH1_ty	LTH1_tz	LTH2_tx	LTH2_ty	LTH2_tz	LTH3_tx	LTH3_ty	LTH3_tz	RTB1_tx	RTB1_ty	RTB1_tz	RTB2_tx	RTB2_ty	RTB2_tz	RTB3_tx	RTB3_ty	RTB3_tz	LTB1_tx	LTB1_ty	LTB1_tz	LTB2_tx	LTB2_ty	LTB2_tz	LTB3_tx	LTB3_ty	LTB3_tz	RCAL_tx	RCAL_ty	RCAL_tz	RTOE_tx	RTOE_ty	RTOE_tz	RMT5_tx	RMT5_ty	RMT5_tz	LCAL_tx	LCAL_ty	LCAL_tz	LTOE_tx	LTOE_ty	LTOE_tz	LMT5_tx	LMT5_ty	LMT5_tz	LACR_tx	LACR_ty	LACR_tz	RACR_tx	RACR_ty	RACR_tz	CLAV_tx	CLAV_ty	CLAV_tz	C7_tx	C7_ty	C7_tz	RUA1_tx	RUA1_ty	RUA1_tz	RUA2_tx	RUA2_ty	RUA2_tz	RUA3_tx	RUA3_ty	RUA3_tz	RLEL_tx	RLEL_ty	RLEL_tz	RMEL_tx	RMEL_ty	RMEL_tz	LUA1_tx	LUA1_ty	LUA1_tz	LUA2_tx	LUA2_ty	LUA2_tz	LUA3_tx	LUA3_ty	LUA3_tz	LLEL_tx	LLEL_ty	LLEL_tz	LMEL_tx	LMEL_ty	LMEL_tz	RFAsuperior_tx	RFAsuperior_ty	RFAsuperior_tz	RFAradius_tx	RFAradius_ty	RFAradius_tz	RFAulna_tx	RFAulna_ty	RFAulna_tz	LFAsuperior_tx	LFAsuperior_ty	LFAsuperior_tz	LFAradius_tx	LFAradius_ty	LFAradius_tz	LFAulna_tx	LFAulna_ty	LFAulna_tz
      0.01666700	      1.45263954	      5.81513824	      7.20553665	      0.48831425	      0.96272183	     -0.33477257	     16.83999375	     -8.80962347	     -4.67300870	    -84.67701229	     -4.38127841	     11.11095351	     10.45832897	      0.01966569	    -33.57999152	     17.70836504	    -18.14849182	     -8.12388668	     -7.73968251	    -14.62183576	    -21.61362426	     18.58987903	    110.85741803	     81.92252332	     -7.18698738	    -33.81219968	     -1.36210578	    115.80982932	     97.75129714	      0.00000000	      0.00000000	      0.00000000	      0.00000000	      0.00000000	      0.00000000	      0.00000000	      0.00000000	      0.49213275	      0.99080832	     -0.45910409	      0.50710999	      0.98277551	     -0.20393903	      0.32355042	      1.00694385	     -0.35384142	      0.33123228	      1.00661976	     -0.26834617	      0.49828909	      0.79926641	     -0.16810418	      0.58321237	      0.69753535	     -0.18803027	      0.53597334	      0.56424513	     -0.17479726	      0.45459038	      0.84922243	     -0.50162517	      0.52168512	      0.74120151	     -0.49073245	      0.47147327	      0.59652451	     -0.47494667	      0.47560850	      0.38464490	     -0.23126570	      0.39875166	      0.39124685	     -0.17855523	      0.30826806	      0.32342512	     -0.24250232	      0.51202145	      0.35947270	     -0.39277025	      0.43840182	      0.26576439	     -0.43174756	      0.43190404	      0.19071945	     -0.35312146	      0.14974404	      0.37145142	     -0.26051516	      0.21082141	      0.16187273	     -0.24032176	      0.17552525	      0.19688296	     -0.15281907	      0.28261453	      0.10255825	     -0.33978618	      0.49692149	      0.07302088	     -0.35117923	      0.46406251	      0.05871631	     -0.43438719	      0.48452479	      1.40400921	     -0.54174181	      0.49833847	      1.42804143	     -0.15474132	      0.58662357	      1.38522568	     -0.32248515	      0.45891315	      1.48440966	     -0.35580568	      0.46350357	      1.32237377	     -0.09064889	      0.46864895	      1.25081735	     -0.09475008	      0.37484248	      1.25585458	     -0.04790974	      0.39981921	      1.16706602	     -0.01652622	      0.33110436	      1.15413304	     -0.07375673	      0.44922763	      1.33038674	     -0.59403472	      0.38457820	      1.26662528	     -0.57861008	      0.43227472	      1.24424104	     -0.63898279	      0.40870236	      1.14701773	     -0.68586632	      0.36640449	      1.09762728	     -0.62448636	      0.46811257	      1.14024587	     -0.06239169	      0.56853698	      1.10225629	     -0.18994236	      0.54137391	      1.04259448	     -0.16677262	      0.47919444	      1.14714158	     -0.66754253	      0.61519465	      1.12743657	     -0.56053434	      0.61861208	      1.07246646	     -0.60025154
      0.02500000	      1.37166670	      5.80129932	      7.48145785	      0.48691693	      0.96455562	     -0.33548374	     18.67983857	     -8.91207926	     -4.37258650	    -85.05715661	     -3.89164783	      9.56493934	     10.32830562	      0.33948507	    -32.49432753	     17.73315257	    -18.15616550	     -8.01694632	     -8.76912053	    -15.38216820	    -21.22264057	     17.94608625	    109.80446361	     81.50740682	     -5.81552108	    -33.30726756	     -1.28814161	    115.16731516	     99.35000556	      0.00000000	      0.00000000	      0.00000000	      0.00000000	      0.00000000	      0.00000000	      0.00000000	      0.00000000	      0.49022802	      0.99218951	     -0.45854863	      0.50630094	      0.98501224	     -0.20614170	      0.32245933	      1.00895564	     -0.35465607	      0.32995505	      1.00835496	     -0.26888368	      0.49940298	      0.80194620	     -0.16838165	      0.58831183	      0.70287429	     -0.18890575	      0.54511221	      0.56894706	     -0.17588869	      0.45035150	      0.85038585	     -0.50176765	      0.51423786	      0.74084844	     -0.49145984	      0.46132012	      0.59735001	     -0.47487396	      0.48958515	      0.38828453	     -0.23208356	      0.41300419	      0.39356235	     -0.17872584	      0.32426408	      0.32343491	     -0.24183625	      0.49808628	      0.35936519	     -0.39328408	      0.42319304	      0.26672248	     -0.43224598	      0.41648592	      0.19116059	     -0.35358305	      0.16277573	      0.36820790	     -0.25775832	      0.23113782	      0.16060367	     -0.24057578	      0.19587647	      0.19321506	     -0.15277114	      0.26636404	      0.10328475	     -0.34000322	      0.48006040	      0.07257624	     -0.35217313	      0.44735632	      0.05858008	     -0.43462295	      0.48628969	      1.40484153	     -0.54188041	      0.49461240	      1.43072140	     -0.15502400	      0.58574588	      1.38773261	     -0.32124409	      0.45808129	      1.48612689	     -0.35658543	      0.45793751	      1.32581024	     -0.09104479	      0.46300501	      1.25418720	     -0.09433750	      0.36756841	      1.25954538	     -0.05090837	      0.39044112	      1.17024540	     -0.01817617	      0.32404451	      1.15834328	     -0.07753319	      0.45283477	      1.33021103	     -0.59385474	      0.38956509	      1.26460459	     -0.57780263	      0.43706826	      1.24341040	     -0.63798984	      0.41643489	      1.14457521	     -0.68485532	      0.37476085	      1.09534095	     -0.62280954	      0.45949311	      1.14067308	     -0.06130517	      0.56351988	      1.09951300	     -0.18624283	      0.53361565	      1.04108769	     -0.16323364	      0.48710005	      1.14539482	     -0.66637784	      0.62241357	      1.12841439	     -0.55658807	      0.62760188	      1.07429554	     -0.59701149
      0.03333300	      1.30423378	      5.69883966	      7.71885661	      0.48572815	      0.96673879	     -0.33609615	     20.41485421	     -8.86390660	     -4.08284013	    -85.09986040	     -3.46941142	      7.91390984	     10.09357724	      0.72559873	    -31.22777510	     17.64003562	    -18.14141314	     -7.80551658	     -9.70176669	    -16.25547754	    -20.91826787	     17.19783699	    109.10791703	     80.79521935	     -4.58347915	    -32.83222484	     -1.17298791	    114.73212593	    100.44800187	      0.00000000	      0.00000000	      0.00000000	      0.00000000	      0.00000000	      0.00000000	      0.00000000	      0.00000000	      0.48855978	      0.99377217	     -0.45837728	      0.50558999	      0.98757695	     -0.20774022	      0.32138459	      1.01133900	     -0.35542580	      0.32884600	      1.01048941	     -0.26956829	      0.50082198	      0.80524214	     -0.16858577	      0.59323608	      0.70857989	     -0.18988702	      0.55377489	      0.57423528	     -0.17716477	      0.44618369	      0.85174567	     -0.50181301	      0.50711347	      0.74085067	     -0.49182196	      0.45111862	      0.59848502	     -0.47457544	      0.50338994	      0.39220988	     -0.23300823	      0.42706951	      0.39589912	     -0.17905504	      0.34020105	      0.32321884	     -0.24159658	      0.48379893	      0.35954326	     -0.39344124	      0.40784185	      0.26793414	     -0.43261025	      0.40093261	      0.19186495	     -0.35408973	      0.17593139	      0.36395964	     -0.25506483	      0.25224959	      0.15875941	     -0.24155741	      0.21683811	      0.18874310	     -0.15307692	      0.24988089	      0.10415432	     -0.34017851	      0.46321639	      0.07224208	     -0.35291399	      0.43064092	      0.05847789	     -0.43487353	      0.48824492	      1.40629419	     -0.54194719	      0.49113097	      1.43369899	     -0.15526223	      0.58492454	      1.39067297	     -0.32002350	      0.45735115	      1.48825435	     -0.35720000	      0.45253526	      1.32958376	     -0.09136539	      0.45718601	      1.25795026	     -0.09399587	      0.36043243	      1.26384126	     -0.05351627	      0.38097171	      1.17403408	     -0.01959604	      0.31686485	      1.16329017	     -0.08107246	      0.45672267	      1.33069511	     -0.59367500	      0.39424846	      1.26378118	     -0.57741152	      0.44176968	      1.24330467	     -0.63689971	      0.42374249	      1.14314249	     -0.68357746	      0.38278555	      1.09406077	     -0.62092253	      0.45073555	      1.14211858	     -0.06000879	      0.55846906	      1.09850064	     -0.18199237	      0.52605836	      1.04109902	     -0.15976086	      0.49452718	      1.14483189	     -0.66489282	      0.62910635	      1.13071909	     -0.55250401	      0.63595665	      1.07707743	     -0.59321803
      0.04166700	      1.22578883	      5.44686621	      7.89757790	      0.48483663	      0.96948827	     -0.33661023	     22.02365737	     -8.57584577	     -3.82156215	    -84.65248763	     -3.12551802	      6.16007791	      9.70475960	      1.21569897	    -29.72285569	     17.37629900	    -18.05347978	     -7.41433240	    -10.47174787	    -17.31181448	    -20.75619758	     16.29597442	    108.97001834	     79.62168871	     -3.55227246	    -32.37015382	     -0.94180007	    114.62835363	    100.75628621	      0.00000000	      0.00000000	      0.00000000	      0.00000000	      0.00000000	      0.00000000	      0.00000000	      0.00000000	      0.48731916	      0.99564386	     -0.45887545	      0.50499459	      0.99070682	     -0.20855569	      0.32040904	      1.01429954	     -0.35616587	      0.32804318	      1.01327146	     -0.27047181	      0.50265264	      0.80946211	     -0.16877097	      0.59785199	      0.71486856	     -0.19102895	      0.56165093	      0.58037604	     -0.17870078	      0.44219467	      0.85341191	     -0.50170234	      0.50051447	      0.74136786	     -0.49162524	      0.44083886	      0.60014939	     -0.47388173	      0.51686994	      0.39656653	     -0.23410875	      0.44080797	      0.39821825	     -0.17964447	      0.35599542	      0.32263523	     -0.24197752	      0.46902055	      0.36022028	     -0.39306108	      0.39232603	      0.26954927	     -0.43270891	      0.38519033	      0.19301012	     -0.35463468	      0.18929733	      0.35808738	     -0.25249577	      0.27448552	      0.15598804	     -0.24362898	      0.23880529	      0.18305184	     -0.15392750	      0.23312358	      0.10534185	     -0.34033950	      0.44646614	      0.07210638	     -0.35322674	      0.41393781	      0.05842398	     -0.43512170	      0.49042574	      1.40874889	     -0.54186791	      0.48800655	      1.43716409	     -0.15541885	      0.58418485	      1.39427620	     -0.31881924	      0.45677740	      1.49103241	     -0.35753964	      0.44736382	      1.33393449	     -0.09155710	      0.45116524	      1.26235117	     -0.09370690	      0.35350741	      1.26911384	     -0.05552736	      0.37147198	      1.17886862	     -0.02066288	      0.30955067	      1.16936257	     -0.08419793	      0.46092859	      1.33226301	     -0.59345843	      0.39844557	      1.26479771	     -0.57758075	      0.44636358	      1.24438256	     -0.63569308	      0.43040733	      1.14332103	     -0.68193373	      0.39014136	      1.09438819	     -0.61876692	      0.44189607	      1.14527957	     -0.05841987	      0.55341349	      1.10021918	     -0.17694289	      0.51887528	      1.04349683	     -0.15636581	      0.50121111	      1.14612457	     -0.66290230	      0.63491152	      1.13509602	     -0.54817364	      0.64322420	      1.08134273	     -0.58849998
